<svg xmlns="http://www.w3.org/2000/svg" width="520" height="284" viewBox="0 0 520 284"><rect width="100%" height="100%" fill="white"/><text x="20" y="24" font-size="16" font-weight="700">Shadbala</text><text x="20" y="54" font-size="12">Sun</text><rect x="110" y="40" width="162.9" height="18" fill="#d7e7c5"/><text x="282.9" y="54" font-size="12">3.62</text><text x="20" y="86" font-size="12">Moon</text><rect x="110" y="72" width="198.5" height="18" fill="#d7e7c5"/><text x="318.5" y="86" font-size="12">4.41</text><text x="20" y="118" font-size="12">Mars</text><rect x="110" y="104" width="135.0" height="18" fill="#d7e7c5"/><text x="255.0" y="118" font-size="12">3.0</text><text x="20" y="150" font-size="12">Mercury</text><rect x="110" y="136" width="179.6" height="18" fill="#d7e7c5"/><text x="299.6" y="150" font-size="12">3.99</text><text x="20" y="182" font-size="12">Jupiter</text><rect x="110" y="168" width="182.7" height="18" fill="#d7e7c5"/><text x="302.7" y="182" font-size="12">4.06</text><text x="20" y="214" font-size="12">Venus</text><rect x="110" y="200" width="157.5" height="18" fill="#d7e7c5"/><text x="277.5" y="214" font-size="12">3.5</text><text x="20" y="246" font-size="12">Saturn</text><rect x="110" y="232" width="97.6" height="18" fill="#d7e7c5"/><text x="217.6" y="246" font-size="12">2.17</text></svg>