<svg xmlns="http://www.w3.org/2000/svg" width="520" height="284" viewBox="0 0 520 284"><rect width="100%" height="100%" fill="white"/><text x="20" y="24" font-size="16" font-weight="700">Shadbala</text><text x="20" y="54" font-size="12">Sun</text><rect x="110" y="40" width="160.7" height="18" fill="#d7e7c5"/><text x="280.6" y="54" font-size="12">3.57</text><text x="20" y="86" font-size="12">Moon</text><rect x="110" y="72" width="211.9" height="18" fill="#d7e7c5"/><text x="331.9" y="86" font-size="12">4.71</text><text x="20" y="118" font-size="12">Mars</text><rect x="110" y="104" width="166.1" height="18" fill="#d7e7c5"/><text x="286.1" y="118" font-size="12">3.69</text><text x="20" y="150" font-size="12">Mercury</text><rect x="110" y="136" width="131.4" height="18" fill="#d7e7c5"/><text x="251.4" y="150" font-size="12">2.92</text><text x="20" y="182" font-size="12">Jupiter</text><rect x="110" y="168" width="183.2" height="18" fill="#d7e7c5"/><text x="303.1" y="182" font-size="12">4.07</text><text x="20" y="214" font-size="12">Venus</text><rect x="110" y="200" width="230.4" height="18" fill="#d7e7c5"/><text x="350.4" y="214" font-size="12">5.12</text><text x="20" y="246" font-size="12">Saturn</text><rect x="110" y="232" width="124.7" height="18" fill="#d7e7c5"/><text x="244.7" y="246" font-size="12">2.77</text></svg>