<svg xmlns="http://www.w3.org/2000/svg" width="920" height="130" viewBox="0 0 920 130"><rect width="100%" height="100%" fill="white"/><text x="20" y="28" font-size="16" font-weight="700">Vimshottari Dasha Timeline</text><rect x="20.0" y="50" width="146.7" height="42" fill="#e8eef8" stroke="#344"/><text x="93.3" y="75" text-anchor="middle" font-size="12">Venus</text><rect x="166.7" y="50" width="44.0" height="42" fill="#e8eef8" stroke="#344"/><text x="188.7" y="75" text-anchor="middle" font-size="12">Sun</text><rect x="210.7" y="50" width="73.3" height="42" fill="#e8eef8" stroke="#344"/><text x="247.3" y="75" text-anchor="middle" font-size="12">Moon</text><rect x="284.0" y="50" width="51.3" height="42" fill="#e8eef8" stroke="#344"/><text x="309.7" y="75" text-anchor="middle" font-size="12">Mars</text><rect x="335.3" y="50" width="132.0" height="42" fill="#e8eef8" stroke="#344"/><text x="401.3" y="75" text-anchor="middle" font-size="12">Rahu</text><rect x="467.3" y="50" width="117.3" height="42" fill="#e8eef8" stroke="#344"/><text x="526.0" y="75" text-anchor="middle" font-size="12">Jupiter</text><rect x="584.7" y="50" width="139.3" height="42" fill="#e8eef8" stroke="#344"/><text x="654.3" y="75" text-anchor="middle" font-size="12">Saturn</text><rect x="724.0" y="50" width="124.7" height="42" fill="#e8eef8" stroke="#344"/><text x="786.3" y="75" text-anchor="middle" font-size="12">Mercury</text><rect x="848.7" y="50" width="51.3" height="42" fill="#e8eef8" stroke="#344"/><text x="874.3" y="75" text-anchor="middle" font-size="12">Ketu</text></svg>