<svg xmlns="http://www.w3.org/2000/svg" width="520" height="284" viewBox="0 0 520 284"><rect width="100%" height="100%" fill="white"/><text x="20" y="24" font-size="16" font-weight="700">Shadbala</text><text x="20" y="54" font-size="12">Sun</text><rect x="110" y="40" width="234.9" height="18" fill="#d7e7c5"/><text x="354.9" y="54" font-size="12">5.22</text><text x="20" y="86" font-size="12">Moon</text><rect x="110" y="72" width="196.7" height="18" fill="#d7e7c5"/><text x="316.6" y="86" font-size="12">4.37</text><text x="20" y="118" font-size="12">Mars</text><rect x="110" y="104" width="148.9" height="18" fill="#d7e7c5"/><text x="268.9" y="118" font-size="12">3.31</text><text x="20" y="150" font-size="12">Mercury</text><rect x="110" y="136" width="174.6" height="18" fill="#d7e7c5"/><text x="294.6" y="150" font-size="12">3.88</text><text x="20" y="182" font-size="12">Jupiter</text><rect x="110" y="168" width="171.4" height="18" fill="#d7e7c5"/><text x="291.4" y="182" font-size="12">3.81</text><text x="20" y="214" font-size="12">Venus</text><rect x="110" y="200" width="181.4" height="18" fill="#d7e7c5"/><text x="301.4" y="214" font-size="12">4.03</text><text x="20" y="246" font-size="12">Saturn</text><rect x="110" y="232" width="216.9" height="18" fill="#d7e7c5"/><text x="336.9" y="246" font-size="12">4.82</text></svg>