<svg xmlns="http://www.w3.org/2000/svg" width="480" height="514" viewBox="0 0 480 514"><rect width="100%" height="100%" fill="white"/><text x="240.0" y="22" text-anchor="middle" font-size="16" font-weight="700">South Indian D1</text><rect x="0" y="34" width="120" height="120" fill="none" stroke="#222"/><text x="8" y="54" font-size="12" font-weight="700">10</text><text x="8" y="78" font-size="12">Ur(R), Ne(R)</text><rect x="120" y="34" width="120" height="120" fill="none" stroke="#222"/><text x="128" y="54" font-size="12" font-weight="700">11</text><text x="128" y="78" font-size="12"></text><rect x="240" y="34" width="120" height="120" fill="none" stroke="#222"/><text x="248" y="54" font-size="12" font-weight="700">12</text><text x="248" y="78" font-size="12">Sa(R)</text><rect x="360" y="34" width="120" height="120" fill="none" stroke="#222"/><text x="368" y="54" font-size="12" font-weight="700">1</text><text x="368" y="78" font-size="12">Mo, Ke(R)</text><rect x="0" y="154" width="120" height="120" fill="none" stroke="#222"/><text x="8" y="174" font-size="12" font-weight="700">9</text><text x="8" y="198" font-size="12"></text><rect x="360" y="154" width="120" height="120" fill="none" stroke="#222"/><text x="368" y="174" font-size="12" font-weight="700">2</text><text x="368" y="198" font-size="12"></text><rect x="0" y="274" width="120" height="120" fill="none" stroke="#222"/><text x="8" y="294" font-size="12" font-weight="700">8</text><text x="8" y="318" font-size="12">Ju(R), Pl(R)</text><rect x="360" y="274" width="120" height="120" fill="none" stroke="#222"/><text x="368" y="294" font-size="12" font-weight="700">3</text><text x="368" y="318" font-size="12">Me, Ve</text><rect x="0" y="394" width="120" height="120" fill="none" stroke="#222"/><text x="8" y="414" font-size="12" font-weight="700">7</text><text x="8" y="438" font-size="12">Ra(R)</text><rect x="120" y="394" width="120" height="120" fill="none" stroke="#222"/><text x="128" y="414" font-size="12" font-weight="700">6 ASC</text><text x="128" y="438" font-size="12">Ma, Asc</text><rect x="240" y="394" width="120" height="120" fill="none" stroke="#222"/><text x="248" y="414" font-size="12" font-weight="700">5</text><text x="248" y="438" font-size="12"></text><rect x="360" y="394" width="120" height="120" fill="none" stroke="#222"/><text x="368" y="414" font-size="12" font-weight="700">4</text><text x="368" y="438" font-size="12">Su</text></svg>